<?xml version="1.0" standalone="no"?>
<!DOCTYPE svg PUBLIC "-//W3C//DTD SVG 20010904//EN"
 "http://www.w3.org/TR/2001/REC-SVG-20010904/DTD/svg10.dtd">
<svg version="1.0" xmlns="http://www.w3.org/2000/svg"
 width="4675.000000pt" height="4675.000000pt" viewBox="0 0 4675.000000 4675.000000"
 preserveAspectRatio="xMidYMid meet">

<g transform="translate(0.000000,4675.000000) scale(0.100000,-0.100000)"
fill="#000000" stroke="none">
<path d="M29040 37379 c-1408 -99 -2854 -630 -3929 -1442 -233 -175 -382 -306
-601 -526 -299 -300 -504 -557 -688 -864 -138 -231 -276 -521 -337 -707 -9
-30 -21 -59 -25 -63 -4 -4 -22 34 -40 85 -225 632 -732 1263 -1451 1805 -336
254 -699 476 -1139 696 -1092 548 -2298 884 -3545 989 -233 20 -889 17 -1105
-5 -1045 -104 -1901 -341 -2755 -762 -1502 -741 -2710 -1976 -3525 -3605
-1115 -2229 -1389 -4974 -751 -7527 196 -784 496 -1586 843 -2253 1105 -2126
2638 -4209 4687 -6369 464 -489 1349 -1366 1781 -1766 1068 -987 2860 -2493
5140 -4320 1089 -872 1833 -1455 1857 -1455 35 0 1725 1339 2978 2359 1990
1620 3448 2866 4266 3648 1525 1455 2795 2852 3885 4270 926 1203 1795 2561
2370 3702 532 1053 866 2247 978 3491 55 605 55 1281 0 1905 -53 607 -163
1235 -319 1825 -579 2192 -1787 4058 -3425 5289 -874 658 -1835 1114 -2908
1381 -424 105 -935 186 -1387 220 -160 11 -684 11 -855 -1z m-989 -5001 c77
-35 124 -80 158 -151 22 -45 297 -1110 992 -3832 528 -2073 962 -3770 963
-3771 0 -1 1189 32 2641 73 1452 40 2671 71 2709 69 207 -15 341 -212 296
-438 -28 -145 -116 -246 -245 -283 -40 -12 -612 -30 -2805 -90 -1515 -42
-2807 -75 -2870 -73 -104 3 -120 6 -167 32 -61 34 -126 95 -158 151 -17 28
-244 902 -730 2805 -947 3710 -910 3568 -948 3713 l-33 128 -2153 -6863
c-1184 -3775 -2164 -6887 -2178 -6916 -32 -63 -106 -135 -171 -165 -39 -18
-65 -22 -152 -22 -100 0 -108 1 -168 34 -71 39 -121 89 -155 158 -14 26 -770
2350 -1682 5163 -911 2813 -1658 5116 -1659 5117 0 1 -395 -811 -876 -1805
-960 -1981 -897 -1864 -1018 -1920 l-57 -27 -3190 0 -3190 0 -53 29 c-66 37
-116 92 -151 165 -23 50 -26 68 -26 166 0 98 3 116 26 165 44 94 114 158 211
193 25 9 734 13 3042 17 l3009 5 1018 2100 c560 1155 1033 2120 1051 2145 22
30 54 55 98 78 63 33 68 34 160 30 112 -5 178 -31 257 -102 70 -63 95 -116
184 -394 44 -136 156 -481 249 -767 93 -286 774 -2390 1515 -4675 1560 -4815
1396 -4312 1401 -4308 2 2 980 3118 2173 6923 1194 3806 2180 6939 2191 6963
42 88 141 171 239 199 71 20 186 11 252 -19z"/>
</g>
</svg>
