<svg width="33" height="31" viewBox="0 0 33 31" fill="none" xmlns="http://www.w3.org/2000/svg">
<path d="M21.08 19.4233C19.8822 20.532 18.258 21.1548 16.5643 21.1548C14.8707 21.1548 13.2464 20.532 12.0486 19.4233M11.774 12.285H11.79M21.3547 12.285H21.3706M30.9353 15.242C30.9353 16.9895 30.5636 18.7198 29.8414 20.3342C29.1192 21.9487 28.0606 23.4156 26.7261 24.6512C25.3917 25.8869 23.8074 26.867 22.0639 27.5357C20.3203 28.2045 18.4515 28.5486 16.5643 28.5486C14.6771 28.5486 12.8084 28.2045 11.0648 27.5357C9.32123 26.867 7.73699 25.8869 6.40252 24.6512C5.06805 23.4156 4.00949 21.9487 3.28728 20.3342C2.56508 18.7198 2.19336 16.9895 2.19336 15.242C2.19336 11.7129 3.70744 8.32831 6.40252 5.83284C9.0976 3.33737 12.7529 1.93542 16.5643 1.93542C20.3757 1.93542 24.0311 3.33737 26.7261 5.83284C29.4212 8.32831 30.9353 11.7129 30.9353 15.242Z" stroke="#C66464" stroke-width="3" stroke-linecap="round" stroke-linejoin="round"/>
</svg>
